<svg class="cocktail1" xmlns="http://www.w3.org/2000/svg" xmlns:xlink="http://www.w3.org/1999/xlink" version="1.1" id="Your_Icon" x="0px" y="0px" width="100px" height="100px" viewBox="0 0 100 100" enable-background="new 0 0 100 100" xml:space="preserve">
<path d="M51.914,98.125c0.853,0,1.691-0.102,2.512-0.285l-2.512-1.95l-2.517,1.953C50.219,98.028,51.059,98.125,51.914,98.125z"/>
<path d="M41.74,93.043l3.252-2.527l-4.377-3.399l-1.986,1.542C39.555,90.304,40.598,91.775,41.74,93.043z"/>
<path d="M47.582,97.278l3.062-2.376l-4.379-3.4l-3.431,2.664C44.295,95.548,45.891,96.605,47.582,97.278z"/>
<polygon points="51.914,93.914 56.291,90.516 51.914,87.116 47.535,90.516 "/>
<path d="M56.246,97.276c1.689-0.671,3.286-1.73,4.747-3.111l-3.43-2.663l-4.378,3.4L56.246,97.276z"/>
<polygon points="46.265,89.528 50.644,86.13 46.265,82.729 41.886,86.13 "/>
<polygon points="51.914,85.142 56.291,81.743 51.914,78.343 47.535,81.743 "/>
<polygon points="57.563,89.528 61.941,86.13 57.563,82.729 53.186,86.13 "/>
<path d="M62.089,93.043c1.143-1.267,2.188-2.734,3.114-4.381l-1.991-1.546l-4.378,3.399L62.089,93.043z"/>
<polygon points="46.265,80.755 50.644,77.357 46.265,73.956 41.886,77.357 "/>
<polygon points="63.212,85.142 67.591,81.743 63.212,78.343 58.834,81.743 "/>
<path d="M65.938,87.259c0.526-1.064,1.003-2.193,1.433-3.37l-2.888,2.241L65.938,87.259z"/>
<path d="M35.855,57.104c-0.559,1.827-0.998,3.766-1.304,5.787l0.413,0.319l4.378-3.398L35.855,57.104z"/>
<polygon points="51.914,76.369 56.291,72.971 51.914,69.571 47.535,72.971 "/>
<polygon points="57.563,80.755 61.941,77.357 57.563,73.956 53.186,77.357 "/>
<polygon points="40.615,67.597 44.992,64.197 40.615,60.799 36.237,64.197 "/>
<polygon points="63.212,76.369 67.592,72.971 63.212,69.571 58.834,72.971 "/>
<polygon points="57.563,71.982 61.941,68.585 57.563,65.185 53.186,68.585 "/>
<path d="M68.442,80.431c0.487-1.896,0.85-3.892,1.073-5.967l-0.654-0.508l-4.378,3.401L68.442,80.431z"/>
<path d="M39.343,51.039l-0.692-0.538c-0.325,0.574-0.63,1.176-0.923,1.792L39.343,51.039z"/>
<polygon points="51.914,67.597 56.291,64.197 51.914,60.799 47.535,64.197 "/>
<path d="M36.378,55.534l4.237,3.29l4.377-3.399l-4.377-3.399l-4.121,3.2C36.458,55.328,36.416,55.429,36.378,55.534z"/>
<polygon points="46.265,63.21 50.644,59.812 46.265,56.412 41.886,59.812 "/>
<polygon points="63.212,67.597 67.592,64.197 63.212,60.799 58.835,64.197 "/>
<path d="M68.861,71.982l0.883-0.684c0.021-0.561,0.033-1.124,0.033-1.693c0-1.302-0.058-2.581-0.164-3.838l-0.752-0.583l-4.378,3.4  L68.861,71.982z"/>
<polygon points="57.563,63.21 61.941,59.812 57.563,56.412 53.186,59.812 "/>
<polygon points="51.914,58.824 56.291,55.425 51.914,52.025 47.535,55.425 "/>
<path d="M44.992,46.652l-2.116-1.644c-1.241,1.165-2.384,2.56-3.41,4.151l1.149,0.893L44.992,46.652z"/>
<polygon points="46.265,54.438 50.644,51.039 46.265,47.64 41.886,51.039 "/>
<path d="M63.212,58.824l4.235-3.289c-0.035-0.101-0.069-0.205-0.105-0.304l-4.13-3.206l-4.378,3.399L63.212,58.824z"/>
<path d="M68.861,63.21l0.413-0.318c-0.308-2.021-0.745-3.959-1.305-5.786l-3.486,2.706L68.861,63.21z"/>
<polygon points="51.914,50.052 56.291,46.652 51.914,43.253 47.535,46.652 "/>
<polygon points="57.563,54.438 61.941,51.039 57.563,47.64 53.186,51.039 "/>
<path d="M66.111,52.303c-0.296-0.621-0.611-1.221-0.938-1.799l-0.689,0.535L66.111,52.303z"/>
<path d="M63.212,50.052l1.149-0.893c-1.024-1.591-2.168-2.987-3.407-4.151l-2.12,1.645L63.212,50.052z"/>
<polygon points="41.295,75.842 44.992,72.971 44.161,72.323 "/>
<path d="M46.265,65.185l-3.14,2.438h1.585h0.002c0.861,0,1.558,0.697,1.558,1.56c0,0.388-0.141,0.742-0.376,1.015l-0.748,0.917  l1.118,0.868l4.379-3.397L46.265,65.185z"/>
<polygon points="36.915,81.217 36.465,81.77 36.465,81.92 40.615,85.143 44.993,81.743 40.615,78.343 "/>
<path d="M39.343,86.13l-2.878-2.235v0.022c0.426,1.17,0.903,2.284,1.425,3.341L39.343,86.13z"/>
<path d="M38.104,67.623l-3.14-2.438l-0.748,0.583c-0.053,0.611-0.093,1.231-0.122,1.855H38.104z"/>
<path d="M57.858,37.221C60.485,24.313,64.239,13.785,71,13.914c-4.468-4.439-12.96,2.009-14.901,13.963  c1.356-14.735,2.491-21.629,7.46-21.694c-6.251-5.79-11.56,7.456-11.904,22.961c0.083-7.708-4.777-28.16-12.264-26.649  c4.539,1.397,6.305,10.209,7.772,25.203C45.167,15.859,36.736,9.497,32.291,13.914c6.76-0.128,10.516,10.4,13.143,23.308  c-2.89-5.224-9.982-16.595-15.578-12.908c5.006,0,10.913,10.872,13.73,20.062c0.164-0.139,0.33-0.272,0.498-0.403l2.181,1.692  l4.379-3.399l-1.172-0.908v-0.004c0.722-0.158,1.457-0.247,2.205-0.263l0.002,0.003l0.235,0.184l0.234-0.183  c0.747,0.016,1.481,0.108,2.202,0.266l-1.165,0.904l4.378,3.399l2.183-1.693c-0.064-0.05-0.13-0.095-0.193-0.143l0.011,0.002  c2.042-13.699,5.536-25.355,10.038-23.82C63.349,14.143,59.365,30.652,57.858,37.221z"/>
<polygon points="41.887,96.812 34.905,95.178 34.905,81.215 44.71,69.183 21.24,69.183 31.043,81.215 31.043,95.178 24.063,96.812   24.063,97.701 41.887,97.701 "/>
</svg>