<svg xmlns="http://www.w3.org/2000/svg" xmlns:xlink="http://www.w3.org/1999/xlink" version="1.1" id="Calque_1" x="0px" y="0px" width="100px" height="100px" viewBox="5.0 -10.0 100.0 135.0" enable-background="new 0 0 100 100" xml:space="preserve">
<g>
	<path d="M92.233,40.04l-0.045-0.22c-0.166-0.464-0.323-0.928-0.479-1.388c-0.594-1.758-1.155-3.419-2.121-4.872   c-2.7-4.058-6.751-6.594-11.754-7.371c0.185-1.676,0.356-3.421,0.004-5.558c-1.313-7.882-8.953-13.947-17.777-14.105l-0.225-0.001   c-0.926,0-1.982,0.08-2.899,0.221c-3.473,0.543-6.29,1.793-9.327,4.156c-2.628-1.228-5.54-2.366-9.381-2.366   c-1.099,0-2.257,0.094-3.441,0.281c-1.845,0.29-3.8,1.1-4.801,1.557c-5.829,2.654-9.992,8.346-10.362,14.167   c-0.064,1.032,0.049,1.979,0.158,2.895c0.048,0.394,0.095,0.793,0.129,1.202c-5.3,1.522-9.265,5.141-11.208,10.25   c-1.146,3.022-1.478,5.954-1.011,8.96c0.421,2.7,1.648,5.627,3.282,7.833c2.484,3.366,6.401,5.749,10.553,6.438   c1.92,4.555,3.793,9.273,5.604,13.839c1.679,4.224,3.355,8.448,5.089,12.609l0.158,0.38l0.399,0.1   c4.663,1.187,9.849,1.669,16.204,2.029l0.05,0.003l9.551-0.665l0.246-0.03c1.018-0.256,2.031-0.472,3.031-0.686   c1.387-0.297,2.818-0.602,4.183-0.998c1.799-0.522,3.501-1.148,5.148-1.753l1.916-0.694l0.117-0.409   c1.979-6.952,3.89-14.104,5.737-21.022l1.4-5.232c3.983-1.067,7.245-3.538,9.458-7.17l0.168-0.275   c0.412-0.674,0.878-1.438,1.168-2.155c0.522-1.32,0.774-2.752,1.016-4.14c0.1-0.559,0.198-1.125,0.316-1.69l0.022-0.11   L92.233,40.04z M41.869,63.826c-0.053-0.207,0.107-0.232,0.104-0.401c0.208-0.051,0.233,0.108,0.4,0.103   c0.32,0.583,0.748,1.188,0.943,2.17c0.95,4.862,1.784,11.487,2.629,16.923c0.229,1.484,0.422,2.976-0.233,4.226   c-1.583-1.671-1.569-4.908-2.007-8.017C42.979,73.638,41.452,67.828,41.869,63.826z M51.182,63.438   c0.129-0.235-0.147-0.451,0.498-0.433c1.131,3.13,1.064,7.724,1.364,12.011c0.146,2.046,0.367,4.251,0.442,6.286   c0.064,1.916,0.42,4.09-0.562,5.166c-0.675-0.505-0.803-1.242-0.933-2.038c-0.409-2.521-0.312-6.353-0.571-10.087   C51.148,70.469,50.118,65.36,51.182,63.438z M60.694,62.113c0.206-0.051,0.232,0.108,0.403,0.105   c0.823,1.522,0.501,4.383,0.438,6.281c-0.171,5.059,0.417,10.77-0.114,15.276c-0.089,0.718-0.404,1.389-0.651,2.018   c-1.137-0.925-0.942-2.844-0.965-4.411c-0.059-3.987,0.202-8.888,0.271-13.041C60.116,65.878,59.756,63.816,60.694,62.113z    M67.317,60.862c0.125-0.009,0.091-0.166,0.111-0.271c0.089-0.003,0.175-0.01,0.261-0.017c1.217,1.958,0.69,5.347,0.532,7.593   c-0.38,5.46,0.605,11.667-0.987,15.989c-0.541-0.218-0.668-0.945-0.757-1.394c-0.562-2.942,0.14-7.639,0.223-11.856   C66.777,67.149,66.428,63.388,67.317,60.862z M37.495,85.973c-1.667-1.294-1.693-4.766-2.222-7.345   c-0.099-0.479-0.029-1.021-0.112-1.573c-0.619-4.191-2.112-9.831-2.066-12.617c0.01-0.619,0.209-1.143,0.275-1.73   c0.087-0.003,0.174-0.009,0.26-0.017c0.674,0.513,1.026,1.451,1.214,2.283c1.116,4.974,1.789,11.857,2.637,17.053   C37.719,83.46,38.228,84.768,37.495,85.973z M90.55,45.566c-0.241,1.364-0.466,2.653-0.925,3.81   c-0.237,0.586-0.667,1.29-1.044,1.909l-0.169,0.277c-2.097,3.44-5.094,5.642-8.911,6.545l-0.479,0.112c0,0-9.65,0.055-12.445-2.304   c-4.7,2.729-11.544,5.616-19.086,5.546c-5.479-0.059-10.684-1.156-14.544-2.929c-2.515,1.708-10.729,2.021-10.729,2.021   c-3.833-0.513-7.632-2.756-9.915-5.854c-1.483-2.002-2.598-4.659-2.979-7.106c-0.43-2.754-0.136-5.334,0.923-8.12   c1.825-4.802,5.635-8.145,10.728-9.414l0.649-0.162l-0.023-0.667c-0.024-0.693-0.101-1.347-0.179-1.993   c-0.105-0.882-0.205-1.714-0.151-2.594c0.335-5.23,4.111-10.362,9.402-12.769c0.924-0.423,2.721-1.171,4.373-1.431   c1.099-0.173,2.171-0.261,3.185-0.261c3.729,0,6.45,1.148,9.136,2.425l0.47,0.223l0.402-0.324c2.957-2.378,5.632-3.613,8.955-4.131   c0.829-0.127,1.783-0.202,2.814-0.202c0.01,0,0.02,0,0.028,0c7.908,0.143,15.013,5.733,16.178,12.727   c0.327,1.979,0.144,3.649-0.033,5.265l-0.153,1.459l0.811,0.093c4.877,0.561,8.813,2.896,11.38,6.756   c0.846,1.271,1.374,2.834,1.933,4.486c0.147,0.434,0.294,0.87,0.449,1.309l0.253,3.667C90.738,44.48,90.643,45.026,90.55,45.566z"/>
	<rect x="19.838" y="47.125" transform="matrix(-0.8168 -0.577 0.577 -0.8168 7.8007 103.2074)" width="0.902" height="6.48"/>
	<rect x="27.41" y="33.345" transform="matrix(-0.6832 -0.7302 0.7302 -0.6832 26.9113 79.2656)" width="6.477" height="0.901"/>
	<rect x="46.759" y="19.379" transform="matrix(0.6831 0.7304 -0.7304 0.6831 30.3299 -30.2334)" width="6.48" height="0.901"/>
	<rect x="58.722" y="27.296" transform="matrix(-0.6828 -0.7306 0.7306 -0.6828 84.0003 91.9598)" width="6.478" height="0.902"/>
	<rect x="35.817" y="22.502" transform="matrix(0.4244 0.9055 -0.9055 0.4244 43.2623 -22.1523)" width="6.476" height="0.901"/>
	<rect x="58.649" y="21.214" transform="matrix(0.4243 0.9055 -0.9055 0.4243 55.2438 -43.5673)" width="6.476" height="0.9"/>
	<rect x="38.828" y="50.826" transform="matrix(-0.4241 -0.9056 0.9056 -0.4241 13.4716 111.1206)" width="6.48" height="0.902"/>
	<rect x="65.857" y="30.51" transform="matrix(0.4239 0.9057 -0.9057 0.4239 67.847 -44.7446)" width="6.478" height="0.902"/>
	<rect x="46.652" y="26.433" transform="matrix(-0.8059 -0.592 0.592 -0.8059 68.1223 79.5706)" width="0.902" height="4.373"/>
	<rect x="50.979" y="48.351" transform="matrix(0.5905 -0.807 0.807 0.5905 -17.6148 62.8871)" width="4.374" height="0.903"/>
	<rect x="36.204" y="32.174" transform="matrix(0.947 0.3211 -0.3211 0.947 12.9752 -9.9501)" width="0.9" height="4.378"/>
	<rect x="56.381" y="35.225" transform="matrix(-0.947 -0.3211 0.3211 -0.947 98.6392 91.0927)" width="0.9" height="4.375"/>
	<rect x="45.523" y="40.994" transform="matrix(-0.947 -0.3211 0.3211 -0.947 75.6451 98.8376)" width="0.9" height="4.374"/>
	<rect x="72.945" y="41.346" transform="matrix(-0.947 -0.3211 0.3211 -0.947 128.924 108.3319)" width="0.9" height="4.378"/>
	<rect x="77.401" y="38.441" transform="matrix(-0.4371 -0.8994 0.8994 -0.4371 80.3641 128.0825)" width="5.727" height="0.902"/>
	<rect x="76.67" y="50.032" transform="matrix(-0.4378 -0.8991 0.8991 -0.4378 68.9622 144.089)" width="5.726" height="0.901"/>
	<rect x="27.226" y="52.898" transform="matrix(-0.9467 -0.3221 0.3221 -0.9467 36.1352 116.1484)" width="0.901" height="4.374"/>
	<rect x="36.204" y="40.994" transform="matrix(-0.9471 -0.3209 0.3209 -0.9471 57.5108 95.8428)" width="0.901" height="4.375"/>
	<rect x="63.942" y="15.518" transform="matrix(0.4503 0.8929 -0.8929 0.4503 50.6089 -50.2664)" width="4.372" height="0.901"/>
	<rect x="70.485" y="24.659" transform="matrix(-0.4498 -0.8931 0.8931 -0.4498 82.9359 101.3087)" width="4.375" height="0.899"/>
	<rect x="15.502" y="39.508" transform="matrix(0.4502 0.8929 -0.8929 0.4502 45.4043 6.1723)" width="4.376" height="0.901"/>
	<rect x="22.551" y="38.248" transform="matrix(-0.45 -0.893 0.893 -0.45 1.3114 78.2047)" width="4.375" height="0.901"/>
	<rect x="59.379" y="48.835" transform="matrix(-0.45 -0.893 0.893 -0.45 45.2605 126.4441)" width="4.375" height="0.901"/>
	<rect x="30.198" y="18.398" transform="matrix(0.8936 -0.4489 0.4489 0.8936 -5.98 15.9507)" width="0.901" height="4.376"/>
	<rect x="54.102" y="27.328" transform="matrix(0.8933 -0.4494 0.4494 0.8933 -7.4448 27.663)" width="0.901" height="4.374"/>
	<rect x="29.04" y="50.08" transform="matrix(-0.4503 -0.8929 0.8929 -0.4503 0.172 101.1664)" width="4.372" height="0.901"/>
	<rect x="63.421" y="36.144" transform="matrix(0.8938 -0.4485 0.4485 0.8938 -10.4075 32.719)" width="0.901" height="4.375"/>
</g></svg>