<svg xmlns="http://www.w3.org/2000/svg" xmlns:xlink="http://www.w3.org/1999/xlink" version="1.1" id="BBQ_xA0_Image_1_" x="0px" y="0px" width="50.88px" height="54.96px" viewBox="2.544 -5.496 50.88 74.196" enable-background="new 0 0 50.88 54.96" xml:space="preserve">
<g>
	<path fill-rule="evenodd" clip-rule="evenodd" d="M45.669,50.923c-0.327,1.249-1.67,1.484-2.957,1.773   c-0.083-0.772-0.688-1.416,0.09-1.327c-0.03-0.758-0.304-0.331-0.681-0.742c-0.917-5.195-2.898-9.325-4.141-14.194   c-3.646,0.046-7.915,0.849-12.714,0.592c0.417,2.888-0.966,6.476,0.702,8.011c-0.918,0.223-2.097,0.729-2.771,0.269   c0.306-1.706,1.002-5.472,1.183-8.279c-3.733-1.392-10.184-0.066-13.011-2.365c-1.567,5.043-3.067,9.543-4.733,13.71   c0.407,2.182-0.738,3.797-2.955,2.849c1.249-5.559,5.519-10.64,6.505-17.445c1.6-2.048,2.21-5.085,2.957-7.985   c-5.097-4.03-12.099-15.266-4.731-21.29c3.134-0.351,5.055-1.721,7.984-0.887c-0.033-0.756-0.99-0.587-1.774-0.591   c7.014-0.317,27.411-2.582,32.347,3.35c0.724,0.868,1.024,3.437,0.474,5.225c-0.781,2.547-3.424,8.24-4.73,10.054   c-2.22,3.082-5.508,2.985-4.731,8.871c0.674,5.101,3.245,10.595,4.731,14.785C43.5,47.526,44.201,48.854,45.669,50.923z    M17.283,5.384c2.9,0.239,5.29-0.033,6.505-1.478C22,3.464,18.682,3.842,17.283,5.384z M23.789,5.384   c3.498,0.36,6.175,0.389,7.983-1.478C30.072,3.709,25.555,3.422,23.789,5.384z M30.589,5.68c3.002,0.077,5.606,1.243,7.096-0.887   C35.466,4.221,32.456,3.622,30.589,5.68z M12.848,5.089c1.656,0.348,3.099,0.088,4.14-0.887   C15.079,4.469,13.895,3.806,12.848,5.089z M37.389,6.271c1.336,0.324,3.241,1.378,4.437,0.887   C41.127,5.796,38.247,4.106,37.389,6.271z M12.848,7.75c2.61-0.233,5.613,0.757,7.097-1.479C16.718,6.152,14.842,5.565,12.848,7.75   z M19.649,8.046c3.431,0.727,5.942,0.586,7.688-1.479C24.841,6.061,20.277,5.731,19.649,8.046z M8.412,7.158   c1.203,0.396,4.018,0.692,4.436-0.591C10.921,7.239,9.443,6.103,8.412,7.158z M26.154,8.933c3.312,0.961,5.657,0.473,7.688-1.775   C31.784,6.678,26.801,5.882,26.154,8.933z M32.364,9.524c2.68,0.602,6.638,1.275,7.393-1.479   C36.636,7.591,33.598,7.031,32.364,9.524z M39.756,10.411c1.412,0.736,1.909-0.976,2.66-1.774   C40.913,8.612,39.794,8.972,39.756,10.411z M10.778,9.82c1.369,1.115,3.724,1.08,4.436-0.591C13.577,9.161,11.543,8.43,10.778,9.82   z M15.509,11.298c2.554,1.56,4.421-0.033,6.209-1.479C19.17,9.956,15.925,8.572,15.509,11.298z M21.127,11.89   c2.973,0.647,6.274,0.899,7.393-1.479C25.919,10.9,22.377,9.267,21.127,11.89z M27.631,12.777c2.876-0.279,6.324,0.015,7.984-1.479   C32.38,10.863,29.081,10.223,27.631,12.777z M27.631,26.675c1.236-0.35,2.45-2.271,3.845-1.479   c-0.033,0.559-0.978,0.205-0.887,0.887c7.859-1.801,12.517-6.802,14.488-14.49c-8.546,3.449-20.563,3.051-30.456,1.774   c-0.64,1.579-1.858,1.867-2.366,2.958c1.639-0.43,1.917-2.223,3.844-2.366c-0.865,1.501-2.633,2.098-3.253,3.844   c2.123-0.247,2.99-3.313,5.027-2.661c-0.808,0.924-3.977,2.117-2.661,3.252c0.424-0.857,1.097-1.466,2.07-1.774   c0.423,1.409-1.237,0.735-0.887,2.07c-0.143,0.743,1.355-0.713,1.479,0.295c-1.029,0.548-2.03,1.125-2.366,2.366   c1.549-0.231,2.23-2.887,3.844-2.07c-0.291,0.695-1.481,0.491-1.479,1.479c1.09-0.007,1.974-1.754,2.661-1.183   c0,0.297,0.239,0.352,0.296,0.591c-1.415,0.465-3.465,1.851-3.253,2.958c1.492-0.727,2.881-2.964,4.436-2.661   c-0.805,2.151-3.719,2.195-4.436,4.436c2.278,0.362,3.71-2.566,6.21-2.958c-0.963,1.406-3.878,2.426-3.548,4.14   c1.597-0.575,2.555-3.353,4.436-2.662c-0.659,1.313-2.46,1.484-2.958,2.957c2.051,0.406,2.926-2.953,4.14-1.478   c-0.343,0.938-1.834,0.729-2.07,1.774c2.757,0.392,3.013-1.719,5.026-2.07C28.999,25.692,26.959,26.078,27.631,26.675z    M13.439,13.664c1.021-1.005-1.952-1.657-2.365-1.183C11.81,12.927,12.524,13.396,13.439,13.664z M9.891,15.734   c0.634,0.511,2.034,0.085,1.183-0.592C11.045,15.714,9.919,14.631,9.891,15.734z M12.552,32.59   c3.681-1.422,8.526,0.011,11.532-1.775c0.078-1.654-1.998-1.156-3.252-1.479c-1.486-1.372-4.606-1.111-5.915-2.661   c-0.295,0-0.591,0-0.887,0C13.762,28.677,11.936,30.686,12.552,32.59z M25.563,30.814c3.41,0.938,6.536,0.066,10.644,0.887   c-0.089-1.487-0.949-2.203-1.183-3.548C32.424,29.595,27.699,28.911,25.563,30.814z M33.841,32.59   c-2.632-0.959-4.289-0.041-7.983-0.297c-0.495,0.491-0.235,1.737-0.296,2.662c4.016,0.395,6.017,1.011,10.053,0.295   c-0.214-0.903,0.302-1.077,0.296-1.773C33.962,33.953,34.583,32.739,33.841,32.59z M16.101,34.067   c2.972-0.179,5.54,1.511,8.279,0.592c0.171-0.96-0.202-1.375-0.296-2.069C21.225,32.883,18.484,33.297,16.101,34.067z"/>
</g>
<!-- <text x="0.0" y="64.578" font-size="2.748" font-weight="bold" font-family="Helvetica Neue, Helvetica, Arial-Unicode, Arial, Sans-serif" fill="#000000">Created by James Cottell</text><text x="0.0" y="67.326" font-size="2.748" font-weight="bold" font-family="Helvetica Neue, Helvetica, Arial-Unicode, Arial, Sans-serif" fill="#000000">from the Noun Project</text> --></svg>