<svg class="icon2" xmlns:sketch="http://www.bohemiancoding.com/sketch/ns" xmlns="http://www.w3.org/2000/svg" xmlns:xlink="http://www.w3.org/1999/xlink" version="1.1" id="Layer_1" x="0px" y="0px" width="44px" height="44px" viewBox="2.2 -4.4 44.0 59.4" enable-background="new 0 0 44 44" xml:space="preserve">
<title>pen_pencil_edit_write</title>
<description>Created with Sketch (http://www.bohemiancoding.com/sketch)</description>
<g>
	<g>
		<path fill-rule="evenodd" clip-rule="evenodd" d="M8.748,37.983h16.197l1.963-10.306H6.785L8.748,37.983z M32.308,13.935H1.386    c-0.491,0-0.491,0.491-0.491,0.491l5.398,26.994h21.105l5.397-26.994C32.797,14.425,32.797,13.935,32.308,13.935z M25.437,38.966    H8.257L3.84,16.389h26.012L25.437,38.966z M33.534,4.609c-4.868,0-8.879,3.639-9.483,8.343h9.238c0,0,0.98,0.031,0.98,0.982    c0,0.373-0.68,4.681-1.505,9.777c0.254,0.021,0.509,0.039,0.77,0.039c5.285,0,9.57-4.286,9.57-9.571    C43.104,8.895,38.819,4.609,33.534,4.609z M37.828,9.52c1.35-0.908,1.997-0.549,2.451,0.125c0.453,0.675,0.543,1.41-0.805,2.318    c-1.351,0.909-3.626,1.647-4.081,0.972C34.939,12.26,36.479,10.429,37.828,9.52z M32.172,12.299    c-0.581,0.598-2.736-0.57-3.924-1.74c-1.189-1.169-0.965-1.896-0.384-2.495c0.58-0.599,1.298-0.841,2.487,0.328    C31.541,9.562,32.751,11.7,32.172,12.299z M32.797,7.554c0-1.626,0.66-1.963,1.473-1.963c0.813,0,1.473,0.337,1.473,1.963    s-0.659,3.926-1.473,3.926C33.457,11.48,32.797,9.18,32.797,7.554z M38.18,20.888c-0.581,0.536-1.268,0.719-2.299-0.49    c-1.033-1.21-2.021-3.355-1.437-3.891c0.581-0.536,2.513,0.74,3.544,1.95C39.021,19.667,38.763,20.352,38.18,20.888z     M39.508,16.902c-1.615-0.194-3.82-1.125-3.723-1.932c0.098-0.807,2.46-1.187,4.075-0.991c1.614,0.194,1.87,0.889,1.771,1.697    C41.535,16.483,41.123,17.097,39.508,16.902z"/>
	</g>
</g>
<!-- <text x="0.0" y="51.7" font-size="2.2" font-weight="bold" font-family="Helvetica Neue, Helvetica, Arial-Unicode, Arial, Sans-serif" fill="#000000">Created by Rohith M S</text><text x="0.0" y="53.9" font-size="2.2" font-weight="bold" font-family="Helvetica Neue, Helvetica, Arial-Unicode, Arial, Sans-serif" fill="#000000">from the Noun Project</text> --></svg>