<svg xmlns="http://www.w3.org/2000/svg" xmlns:xlink="http://www.w3.org/1999/xlink" version="1.1" id="Layer_1" x="0px" y="0px" width="100px" height="100px" viewBox="5.0 -10.0 100.0 135.0" enable-background="new 0 0 100 100" xml:space="preserve">
<path d="M37.886,24.737c8.802,4.351,15.555,10.602,19.494,17.319c-1.237-8.819-7.919-17.658-18.329-22.802  c-12.54-6.199-26.621-5.118-34.906,1.843C13.575,17.902,26.149,18.936,37.886,24.737z"/>
<path d="M43.442,18.671c5.763,7.14,8.971,15.119,9.564,22.408c2.602-8.048,0.534-18.219-6.279-26.662  C38.518,4.244,25.953-0.28,15.925,2.486C25.369,3.396,35.758,9.15,43.442,18.671z"/>
<path d="M77.511,33.74c5.146,3.701,7.957,9.409,8.401,15.759c2.469-8.595,0.723-16.852-5.359-21.23  c-7.325-5.274-18.688-3.291-27.834,4.101C61.289,28.609,70.652,28.802,77.511,33.74z"/>
<path d="M55.463,11.224c3.811-4.944,10.286-7.363,17.806-7.328C62.724,0.724,53.083,1.865,48.58,7.711  c-5.426,7.045-1.718,18.745,8.178,28.615C51.262,27.325,50.386,17.817,55.463,11.224z"/>
<path d="M34.712,32.954c6.101-2.012,12.497-1.542,18.036,0.847c-5.691-5.377-13.582-7.672-20.795-5.294  c-8.69,2.865-13.717,11.624-12.949,21.144C20.913,42.079,26.577,35.633,34.712,32.954z"/>
<path d="M68.31,47.248l2.62-1.035c-1.158-2.016-2.464-3.845-3.89-5.456l-9.425,2.697L68.31,47.248z"/>
<polygon points="52.4,53.521 63.247,49.243 51.696,45.149 38.225,49.006 "/>
<path d="M32.906,47.312l13.771-3.943l-9.525-3.376c-1.903,1.999-3.607,4.376-5.061,7.059L32.906,47.312z"/>
<path d="M26.876,67.159l-0.124-0.291c-0.054,0.986-0.09,1.979-0.09,2.988c0,1.55,0.073,3.02,0.2,4.432l1.164,0.359l15.842-7.064  l-9.073-3.549L26.876,67.159z"/>
<path d="M33.874,60.828L49.6,54.626l-14.679-4.675l-4.834,1.384c-0.896,2.244-1.636,4.641-2.195,7.155L33.874,60.828z"/>
<path d="M75.779,79.662l-0.151,0.341L48.092,69.235l-15.385,6.86l39.527,12.23C73.786,85.907,74.993,83.031,75.779,79.662z"/>
<path d="M52.992,44.002l11.931-4.648c-3.747-4.431-8.115-6.985-12.785-6.985c-4.173,0-8.104,2.043-11.566,5.636L52.992,44.002z"/>
<path d="M75.271,57.114l-4.828,2.154l5.652,1.8C75.868,59.719,75.596,58.398,75.271,57.114z"/>
<path d="M27.406,78.245c2.713,14.241,12.578,20.308,24.337,20.308c7.124,0,13.549-2.231,18.113-7.151L27.406,78.245z"/>
<path d="M67.833,60.432l-16.339,7.286l24.736,9.671c0.383-2.305,0.592-4.809,0.592-7.532c0-2.289-0.148-4.524-0.423-6.698  L67.833,60.432z"/>
<polygon points="54.61,56.22 38.42,62.605 47.271,66.065 63.208,58.959 "/>
<path d="M74.049,53.072l-6.032-2.14L57.41,55.117l8.409,2.678l8.548-3.811C74.264,53.675,74.156,53.375,74.049,53.072z"/>
<path d="M27.38,61.136c-0.131,0.786-0.243,1.583-0.338,2.388l3.207-1.267L27.38,61.136z"/>
<g>
	<path fill="#000000" d="M47.507,27.539c-1.866-3.823-8.917-6.599-13.239-6.628"/>
	<path fill="#000000" d="M47.393,27.581c-1.756-3.599-8.617-6.534-13.125-6.563l0.001-0.214c4.125,0.027,11.377,2.65,13.35,6.692   L47.393,27.581z"/>
</g>
<path d="M71.451,12.513c-11.899,2.507-19.912,13.37-20.419,26.099c3.722-9.752,12.206-17.452,23.346-19.799  c8.351-1.759,16.698-0.191,23.612,3.796C91.352,14.642,81.33,10.433,71.451,12.513z M82.141,16.042  c-0.046-0.025-0.097-0.042-0.144-0.067l-7.393,0.863l-7.021,0.819c-0.066,0.04-0.135,0.076-0.197,0.115l-0.07-0.084h-0.002  c0,0,0,0,0.002,0l-0.071-0.084c-5.789,3.74,6.882-6.268,15.032-1.744L82.141,16.042z"/>
<!-- <text x="0.0" y="117.5" font-size="5.0" font-weight="bold" font-family="Helvetica Neue, Helvetica, Arial-Unicode, Arial, Sans-serif" fill="#000000">Created by Oxana Demchenko</text><text x="0.0" y="122.5" font-size="5.0" font-weight="bold" font-family="Helvetica Neue, Helvetica, Arial-Unicode, Arial, Sans-serif" fill="#000000">from the Noun Project</text> --></svg>